<?xml version="1.0" standalone="no"?>
<!DOCTYPE svg PUBLIC "-//W3C//DTD SVG 20010904//EN"
 "http://www.w3.org/TR/2001/REC-SVG-20010904/DTD/svg10.dtd">
<svg version="1.0" xmlns="http://www.w3.org/2000/svg"
 width="160.000000pt" height="160.000000pt" viewBox="0 0 160.000000 160.000000"
 preserveAspectRatio="xMidYMid meet">
<metadata>
Created by potrace 1.11, written by Peter Selinger 2001-2013
</metadata>
<g transform="translate(0.000000,160.000000) scale(0.100000,-0.100000)"
fill="#000000" stroke="none">
<path d="M778 1525 c-2 -2 -25 -5 -53 -8 -132 -14 -291 -83 -390 -168 -159
-138 -257 -347 -258 -549 0 -59 13 -159 25 -190 5 -14 10 -27 10 -30 3 -28 79
-190 89 -190 4 0 10 -8 13 -18 10 -31 127 -143 197 -188 87 -57 151 -82 279
-110 36 -8 167 -8 220 0 230 34 426 172 539 380 55 102 83 215 83 336 -1 92
-6 128 -36 240 -20 73 -100 201 -173 276 -108 110 -260 187 -413 209 -51 7
-129 13 -132 10z"/>
</g>
</svg>
